<svg fill="none" height="92" viewBox="0 0 93 92" width="93" xmlns="http://www.w3.org/2000/svg"><path d="m.876404.069153h91.5618v91.5618h-91.5618z" fill="#f5f5f5"/><path clip-rule="evenodd" d="m46.634 21.0692c-14.2311 0-25.7576 11.4704-25.7576 25.6323 0 11.3423 7.3731 20.9224 17.6117 24.3187 1.2879.2243 1.7709-.5447 1.7709-1.2175 0-.6088-.0322-2.6274-.0322-4.7741-6.4716 1.1855-8.1459-1.57-8.661-3.0118-.2898-.7369-1.5455-3.0118-2.6402-3.6205-.9015-.4807-2.1893-1.6661-.0322-1.6982 2.0285-.032 3.4773 1.8584 3.9603 2.6273 2.3182 3.8769 6.0208 2.7875 7.5019 2.1147.2253-1.6661.9015-2.7875 1.642-3.4283-5.731-.6408-11.7197-2.8516-11.7197-12.656 0-2.7875.9981-5.0944 2.6402-6.8887-.2576-.6408-1.1591-3.2681.2575-6.7926 0 0 2.1572-.6728 7.0834 2.6274 2.0606-.5768 4.25-.8651 6.4394-.8651s4.3788.2883 6.4394.8651c4.9261-3.3323 7.0833-2.6274 7.0833-2.6274 1.4167 3.5245.5151 6.1518.2576 6.7926 1.642 1.7943 2.6401 4.0691 2.6401 6.8887 0 9.8364-6.0208 12.0152-11.7519 12.656.9337.801 1.7387 2.3389 1.7387 4.742 0 3.4283-.0322 6.1838-.0322 7.0489 0 .6728.4829 1.4738 1.7708 1.2175 10.1742-3.3963 17.5474-13.0084 17.5474-24.3187 0-14.1619-11.5266-25.6323-25.7576-25.6323z" fill="#1b1f23" fill-rule="evenodd"/></svg>